<?xml version="1.0" encoding="UTF-8" standalone="no"?>
<svg xmlns:dc="http://purl.org/dc/elements/1.1/" xmlns:cc="http://creativecommons.org/ns#" xmlns:rdf="http://www.w3.org/1999/02/22-rdf-syntax-ns#" xmlns:svg="http://www.w3.org/2000/svg" xmlns="http://www.w3.org/2000/svg" viewBox="0 0 717.37335 254.67999" height="254.67999" width="717.37335" xml:space="preserve" id="svg2">
  <metadata id="metadata8"></metadata>
  <defs id="defs6"></defs>
  <g transform="matrix(1.3333333,0,0,-1.3333333,0,254.68)" id="g10">
    <g transform="scale(0.1)" id="g12">
      <path id="path14" style="fill:#59c8cc;fill-opacity:1;fill-rule:nonzero;stroke:none" d="m 545.133,1831.88 c 33.25,0 39.097,5.84 39.097,39.11 0,33.26 -5.847,39.11 -39.097,39.11 -33.27,0 -39.125,-5.85 -39.125,-39.11 0,-33.27 5.855,-39.11 39.125,-39.11"></path>
      <path id="path16" style="fill:#59c8cc;fill-opacity:1;fill-rule:nonzero;stroke:none" d="m 545.133,1742.43 c -49.008,0 -67.235,-18.21 -67.235,-67.22 0,-49.01 18.227,-67.23 67.235,-67.23 48.996,0 67.207,18.22 67.207,67.23 0,49.01 -18.211,67.22 -67.207,67.22"></path>
      <path id="path18" style="fill:#59c8cc;fill-opacity:1;fill-rule:nonzero;stroke:none" d="M 0,774.512 C 0,842.5 34.0156,876.5 101.984,876.5 c 67.993,0 101.989,-34 101.989,-101.988 0,-67.961 -33.996,-101.981 -101.989,-101.981 C 34.0156,672.531 0,706.551 0,774.512 Z m 0,-222.5 C 0,620 34.0156,653.988 101.984,653.988 169.977,653.988 203.973,620 203.973,552.012 203.973,485.25 169.977,451.871 101.984,451.871 34.0156,451.871 0,485.25 0,552.012 Z m 222.508,222.5 c 0,67.988 33.379,101.988 100.097,101.988 67.989,0 101.981,-34 101.981,-101.988 0,-67.961 -33.992,-101.981 -101.981,-101.981 -66.718,0 -100.097,34.02 -100.097,101.981 z m 0,-222.5 c 0,67.988 33.379,101.976 100.097,101.976 67.989,0 101.981,-33.988 101.981,-101.976 0,-66.762 -33.992,-100.141 -101.981,-100.141 -66.718,0 -100.097,33.379 -100.097,100.141 z m 220.637,665.668 c 0,67.99 34.019,101.99 101.988,101.99 67.988,0 101.957,-34 101.957,-101.99 0,-67.99 -33.969,-101.98 -101.957,-101.98 -67.969,0 -101.988,33.99 -101.988,101.98 z m 0,-222.532 c 0,68.022 34.019,101.992 101.988,101.992 67.988,0 101.957,-33.97 101.957,-101.992 0,-66.734 -33.969,-100.117 -101.957,-100.117 -67.969,0 -101.988,33.383 -101.988,100.117 z m 0,-220.636 c 0,67.988 34.019,101.988 101.988,101.988 67.988,0 101.957,-34 101.957,-101.988 0,-67.961 -33.969,-101.981 -101.957,-101.981 -67.969,0 -101.988,34.02 -101.988,101.981 z m 0,-222.5 c 0,67.988 34.019,101.976 101.988,101.976 67.988,0 101.957,-33.988 101.957,-101.976 0,-66.762 -33.969,-100.141 -101.957,-100.141 -67.969,0 -101.988,33.379 -101.988,100.141 z m 0,-450.024 c 0,67.992 34.019,101.961 101.988,101.961 67.988,0 101.957,-33.969 101.957,-101.961 C 647.09,34 613.121,0 545.133,0 477.164,0 443.145,34 443.145,101.988 Z m 222.488,0 c 0,67.992 33.398,101.961 100.137,101.961 67.992,0 101.988,-33.969 101.988,-101.961 C 867.758,34 833.762,0 765.77,0 699.031,0 665.633,34 665.633,101.988 Z M 443.145,331.371 c 0,67.988 34.019,101.957 101.988,101.957 67.988,0 101.957,-33.969 101.957,-101.957 0,-67.992 -33.969,-101.992 -101.957,-101.992 -67.969,0 -101.988,34 -101.988,101.992 z m 222.488,886.309 c 0,67.99 33.398,101.99 100.137,101.99 67.992,0 101.988,-34 101.988,-101.99 0,-67.99 -33.996,-101.98 -101.988,-101.98 -66.739,0 -100.137,33.99 -100.137,101.98 z m 0,-222.532 c 0,68.022 33.398,101.992 100.137,101.992 67.992,0 101.988,-33.97 101.988,-101.992 0,-66.734 -33.996,-100.117 -101.988,-100.117 -66.739,0 -100.137,33.383 -100.137,100.117 z m 0,-220.636 c 0,67.988 33.398,101.988 100.137,101.988 67.992,0 101.988,-34 101.988,-101.988 0,-67.961 -33.996,-101.981 -101.988,-101.981 -66.739,0 -100.137,34.02 -100.137,101.981 z m 0,-222.5 c 0,67.988 33.398,101.976 100.137,101.976 67.992,0 101.988,-33.988 101.988,-101.976 0,-66.762 -33.996,-100.141 -101.988,-100.141 -66.739,0 -100.137,33.379 -100.137,100.141 z m 0,-220.641 c 0,67.988 33.398,101.957 100.137,101.957 67.992,0 101.988,-33.969 101.988,-101.957 0,-67.992 -33.996,-101.992 -101.988,-101.992 -66.739,0 -100.137,34 -100.137,101.992 z m 220.656,443.141 c 0,67.988 34.039,101.988 101.984,101.988 67.997,0 101.987,-34 101.987,-101.988 0,-67.961 -33.99,-101.981 -101.987,-101.981 -67.945,0 -101.984,34.02 -101.984,101.981 z m 0,-222.5 c 0,67.988 34.039,101.976 101.984,101.976 67.997,0 101.987,-33.988 101.987,-101.976 0,-66.762 -33.99,-100.141 -101.987,-100.141 -67.945,0 -101.984,33.379 -101.984,100.141 z m 222.511,222.5 c 0,67.988 33.37,101.988 100.11,101.988 68.02,0 101.99,-34 101.99,-101.988 0,-67.961 -33.97,-101.981 -101.99,-101.981 -66.74,0 -100.11,34.02 -100.11,101.981 z m 0,-222.5 c 0,67.988 33.37,101.976 100.11,101.976 68.02,0 101.99,-33.988 101.99,-101.976 0,-66.762 -33.97,-100.141 -101.99,-100.141 -66.74,0 -100.11,33.379 -100.11,100.141"></path>
      <path id="path20" style="fill:#59c8cc;fill-opacity:1;fill-rule:nonzero;stroke:none" d="m 1656.06,626.5 c -51.58,0 -72.62,-21.59 -72.62,-74.488 0,-51.59 21.04,-72.653 72.62,-72.653 52.9,0 74.47,21.063 74.47,72.653 0,52.898 -21.57,74.488 -74.47,74.488"></path>
      <path id="path22" style="fill:#59c8cc;fill-opacity:1;fill-rule:nonzero;stroke:none" d="m 1656.06,849 c -51.58,0 -72.62,-21.578 -72.62,-74.488 0,-52.903 21.04,-74.492 72.62,-74.492 52.9,0 74.47,21.589 74.47,74.492 0,52.91 -21.57,74.488 -74.47,74.488"></path>
      <path id="path24" style="fill:#59c8cc;fill-opacity:1;fill-rule:nonzero;stroke:none" d="m 1435.42,630.41 c -54.98,0 -78.44,-23.43 -78.44,-78.398 0,-53.672 23.46,-76.563 78.44,-76.563 54.94,0 78.39,22.891 78.39,76.563 0,54.968 -23.45,78.398 -78.39,78.398"></path>
      <path id="path26" style="fill:#59c8cc;fill-opacity:1;fill-rule:nonzero;stroke:none" d="m 1435.42,852.91 c -54.98,0 -78.44,-23.43 -78.44,-78.398 0,-54.973 23.46,-78.391 78.44,-78.391 54.94,0 78.39,23.418 78.39,78.391 0,54.968 -23.45,78.398 -78.39,78.398"></path>
      <path id="path28" style="fill:#59c8cc;fill-opacity:1;fill-rule:nonzero;stroke:none" d="m 1883.3,495.09 c 43.94,0 58.77,14.359 58.77,56.922 0,43.937 -14.83,58.758 -58.77,58.758 -43.93,0 -58.76,-14.821 -58.76,-58.758 0,-42.563 14.83,-56.922 58.76,-56.922"></path>
      <path id="path30" style="fill:#59c8cc;fill-opacity:1;fill-rule:nonzero;stroke:none" d="m 1883.3,715.738 c 43.94,0 58.77,14.832 58.77,58.774 0,43.937 -14.83,58.769 -58.77,58.769 -43.93,0 -58.76,-14.832 -58.76,-58.769 0,-43.942 14.83,-58.774 58.76,-58.774"></path>
      <path id="path32" style="fill:#59c8cc;fill-opacity:1;fill-rule:nonzero;stroke:none" d="m 765.77,1535.82 c -53.672,0 -76.563,-23.43 -76.563,-78.39 0,-54.97 22.891,-78.4 76.563,-78.4 54.953,0 78.41,23.43 78.41,78.4 0,54.96 -23.457,78.39 -78.41,78.39"></path>
      <path id="path34" style="fill:#59c8cc;fill-opacity:1;fill-rule:nonzero;stroke:none" d="m 545.133,1535.82 c -54.961,0 -78.414,-23.43 -78.414,-78.39 0,-54.97 23.453,-78.4 78.414,-78.4 54.941,0 78.383,23.43 78.383,78.4 0,54.96 -23.442,78.39 -78.383,78.39"></path>
      <path id="path36" style="fill:#1d2953;fill-opacity:1;fill-rule:nonzero;stroke:none" d="m 1033.28,1670.36 c -0.39,18.79 -1.36,32.5 -2.92,41.15 -11.67,0 -26.09,-0.42 -43.196,-1.19 -17.137,-0.78 -35.434,-1.75 -54.887,-2.94 -19.468,-1.18 -39.312,-2.77 -59.55,-4.7 -20.258,-1.98 -38.93,-4.13 -56.051,-6.46 1.547,8.61 2.922,17.22 4.082,25.85 1.176,8.61 1.758,17.24 1.758,25.85 0,8.61 -0.582,17.24 -1.758,25.87 -1.16,8.61 -2.535,17.22 -4.082,25.87 26.461,-0.79 50.402,-1.58 71.808,-2.37 21.414,-0.79 43.207,-1.36 65.399,-1.76 22.183,-0.39 46.307,-0.79 72.397,-1.19 26.08,-0.39 57.4,-0.57 94,-0.57 36.58,0 67.91,0.18 94,0.57 26.07,0.4 50.01,0.8 71.82,1.19 21.78,0.4 42.99,0.97 63.64,1.76 20.6,0.79 43,1.58 67.13,2.37 -1.57,-8.65 -2.91,-17.26 -4.09,-25.87 -1.16,-8.63 -1.74,-17.26 -1.74,-25.87 0,-8.61 0.58,-17.24 1.74,-25.85 1.18,-8.63 2.52,-17.24 4.09,-25.85 -15.58,2.33 -33.09,4.48 -52.54,6.46 -19.47,1.93 -38.74,3.52 -57.8,4.7 -19.09,1.19 -37.19,2.16 -54.3,2.94 -17.13,0.77 -31.54,1.19 -43.2,1.19 -0.79,-3.96 -1.38,-9.42 -1.75,-16.47 -0.41,-7.05 -0.59,-15.29 -0.59,-24.68 v -356.14 c 0,-65.05 0.76,-122.83 2.34,-173.38 1.54,-50.54 3.88,-100.09 7,-148.676 -13.24,1.582 -27.64,2.352 -43.21,2.352 -15.58,0 -33.09,0 -52.54,0 -19.47,0 -36.98,0 -52.55,0 -15.58,0 -29.98,-0.77 -43.2,-2.352 3.1,48.586 5.44,98.136 7,148.676 1.56,50.55 2.34,108.33 2.34,173.38 v 293.85 c 0,22.72 -0.2,43.48 -0.59,62.29"></path>
      <path id="path38" style="fill:#1d2953;fill-opacity:1;fill-rule:nonzero;stroke:none" d="m 1518.47,1411.77 c 20.23,54.09 44.76,93.84 73.56,119.31 28.79,25.45 63.06,38.19 102.76,38.19 3.89,0 7.18,-0.2 9.93,-0.59 2.71,-0.39 5.63,-0.57 8.75,-0.57 -2.34,-11.77 -4.08,-24.29 -5.25,-37.63 -1.17,-13.32 -1.75,-29 -1.75,-47.01 v -37.6 c 0,-6.28 0,-12.96 0,-19.98 0,-7.07 0.38,-13.72 1.16,-19.98 l -10.51,-9.4 c -7.78,4.69 -16.55,8.6 -26.26,11.72 -9.75,3.14 -20.84,4.72 -33.29,4.72 -35.03,0 -62.67,-11.57 -82.91,-34.67 -20.24,-23.13 -30.36,-50.36 -30.36,-81.69 v -47.02 c 0,-47.81 0.58,-92.85 1.76,-135.17 1.16,-42.3 3.68,-83.06 7.59,-122.236 -10.12,1.582 -22.68,2.352 -37.75,2.352 -15.07,0 -31.52,0 -49.29,0 -17.76,0 -34,0 -48.69,0 -14.68,0 -27.44,-0.77 -38.26,-2.352 3.39,39.176 5.62,79.936 6.65,122.236 1.02,42.32 1.52,87.36 1.52,135.17 v 47.02 c 0,47.78 -0.5,92.64 -1.52,134.57 -1.03,41.9 -3.26,84.04 -6.65,126.36 13.13,-1.58 26.45,-2.94 39.97,-4.13 13.53,-1.16 26.86,-1.76 40,-1.76 13.14,0 26.46,0.6 39.99,1.76 13.52,1.19 26.86,2.55 40.02,4.13 l -3.51,-143.4 2.34,-2.35"></path>
      <path id="path40" style="fill:#1d2953;fill-opacity:1;fill-rule:nonzero;stroke:none" d="m 2114.44,1076.8 c -21.8,-32.92 -47.29,-57.8 -76.48,-74.64 -29.19,-16.851 -62.47,-25.281 -99.84,-25.281 -58.39,0 -103.34,16.473 -134.86,49.371 -31.54,32.9 -47.3,87.36 -47.3,163.39 0,39.96 0.77,75.21 2.33,105.76 1.56,30.57 2.34,61.14 2.34,91.71 0,25.06 -0.58,52.28 -1.76,81.67 -1.16,29.38 -2.52,58.96 -4.08,88.74 10.11,-1.58 22.96,-2.94 38.54,-4.13 15.56,-1.16 31.91,-1.76 49.04,-1.76 17.12,0 33.47,0.6 49.05,1.76 15.56,1.19 28.41,2.55 38.53,4.13 -5.46,-42.32 -8.96,-91.29 -10.51,-146.92 -1.57,-55.65 -2.34,-119.11 -2.34,-190.42 0,-49.34 8.36,-85.62 25.11,-108.72 16.73,-23.11 40.28,-34.66 70.64,-34.66 35.04,0 60.72,15.29 77.07,45.83 16.35,30.55 24.52,72.87 24.52,126.94 v 47.02 c 0,47.78 -0.58,92.64 -1.74,134.57 -1.17,41.9 -3.71,84.04 -7.59,126.36 21.78,-3.93 50.97,-5.89 87.58,-5.89 17.89,0 34.24,0.6 49.04,1.76 14.78,1.19 27.62,2.55 38.52,4.13 -3.9,-42.32 -6.42,-84.46 -7.58,-126.36 -1.17,-41.93 -1.75,-86.79 -1.75,-134.57 v -47.02 c 0,-47.81 0.58,-92.85 1.75,-135.17 1.16,-42.3 3.68,-83.06 7.58,-122.236 -14.01,1.582 -27.83,2.352 -41.44,2.352 -13.63,0 -27.45,0 -41.46,0 -14.01,0 -27.85,0 -41.45,0 -13.64,0 -28.23,-0.77 -43.79,-2.352 l 4.67,84.636 h -2.34"></path>
      <path id="path42" style="fill:#1d2953;fill-opacity:1;fill-rule:nonzero;stroke:none" d="m 2402.64,1100.87 c 7.39,-11.35 16.54,-21.54 27.44,-30.55 10.89,-9.02 23.94,-16.27 39.13,-21.74 15.17,-5.49 32.87,-8.24 53.12,-8.24 27.24,0 48.26,7.08 63.06,21.18 14.78,14.1 22.19,29.38 22.19,45.83 0,18.03 -6.64,32.52 -19.85,43.5 -13.26,10.94 -29.78,20.95 -49.64,29.96 -19.85,9 -41.45,18.23 -64.8,27.62 -23.36,9.41 -44.95,21.35 -64.81,35.84 -19.85,14.5 -36.4,32.73 -49.63,54.66 -13.24,21.94 -19.85,50.14 -19.85,84.62 0,32.94 6.03,61.31 18.11,85.23 12.05,23.9 27.82,43.5 47.29,58.77 19.44,15.28 41.45,26.63 65.97,34.1 24.52,7.42 48.84,11.15 72.99,11.15 32.68,0 61.68,-4.69 86.98,-14.09 25.29,-9.4 51.18,-23.15 77.65,-41.16 -7,-15.67 -12.84,-32.52 -17.52,-50.53 -4.66,-18.03 -8.16,-35.68 -10.5,-52.9 h -32.7 c -2.33,9.4 -6.23,19.78 -11.67,31.14 -5.46,11.37 -12.85,22.13 -22.19,32.33 -9.34,10.19 -20.64,18.62 -33.87,25.27 -13.23,6.66 -29.18,10 -47.87,10 -23.36,0 -43.02,-6.29 -58.96,-18.81 -15.97,-12.56 -23.94,-28.98 -23.94,-49.37 0,-18.79 6.81,-33.9 20.44,-45.23 13.6,-11.38 30.53,-21.39 50.79,-30 20.24,-8.61 42.41,-17.24 66.55,-25.85 24.13,-8.63 46.31,-19.78 66.56,-33.49 20.24,-13.72 37.16,-31.56 50.8,-53.5 13.62,-21.93 20.42,-50.15 20.42,-84.61 0,-34.5 -6.24,-64.06 -18.66,-88.74 -12.48,-24.68 -29.2,-45.06 -50.22,-61.12 -21.01,-16.07 -44.97,-27.624 -71.81,-34.671 -26.86,-7.074 -55.09,-10.59 -84.66,-10.59 -35.04,0 -66.56,5.098 -94.58,15.285 -28.04,10.196 -50.22,20.756 -66.57,31.736 9.35,37.62 15.18,75.21 17.52,112.83 h 29.19 c 4.67,-12.54 10.7,-24.48 18.1,-35.86"></path>
      <path id="path44" style="fill:#1d2953;fill-opacity:1;fill-rule:nonzero;stroke:none" d="m 3080.71,1519.93 c 0,-10.22 1.16,-19.99 3.52,-29.41 l -102.78,2.35 c -1.56,-18.03 -2.9,-38.78 -4.09,-62.28 -1.16,-23.52 -1.93,-47.44 -2.32,-71.7 -0.4,-24.31 -0.8,-47.81 -1.2,-70.52 -0.39,-22.75 -0.56,-41.94 -0.56,-57.6 0,-40.76 0.96,-73.68 2.92,-98.73 1.93,-25.11 5.25,-44.28 9.92,-57.61 4.68,-13.31 11.27,-22.31 19.85,-27.01 8.55,-4.7 19.45,-7.08 32.71,-7.08 14.75,0 25.69,0.98 32.67,2.95 7.03,1.96 14.02,4.88 21.04,8.83 v -48.21 c -15.59,-7.047 -35.05,-13.301 -58.39,-18.797 -23.35,-5.468 -46.32,-8.234 -68.9,-8.234 -98.85,0 -148.3,59.561 -148.3,178.671 0,22.71 0.38,48.36 1.18,76.98 0.76,28.61 1.75,57.99 2.92,88.17 1.16,30.13 2.12,59.93 2.92,89.31 0.77,29.38 1.16,56.6 1.16,81.67 l -81.74,-1.16 c 2.35,9.42 3.49,19.19 3.49,29.41 0,9.39 -1.14,19.96 -3.49,31.7 l 81.74,-3.5 c 0,24.28 -0.39,46.98 -1.16,68.16 -0.8,21.17 -1.96,46.6 -3.52,76.4 27.26,10.95 54.11,22.51 80.6,34.68 26.43,12.12 52.92,24.85 79.38,38.2 l 11.69,-8.25 c -1.56,-12.52 -2.92,-27.23 -4.11,-44.05 -1.14,-16.87 -2.33,-34.5 -3.49,-52.91 -1.17,-18.42 -1.95,-37.22 -2.33,-56.42 -0.42,-19.19 -0.59,-37.41 -0.59,-54.63 l 102.78,2.32 c -2.36,-11.74 -3.52,-22.31 -3.52,-31.7"></path>
      <path id="path46" style="fill:#1d2953;fill-opacity:1;fill-rule:nonzero;stroke:none" d="m 3748.76,1019.79 c -15.21,-7.46 -33.5,-14.1 -54.91,-19.981 -21.41,-5.883 -45.35,-11.161 -71.81,-15.856 -26.46,-4.723 -54.11,-7.074 -82.9,-7.074 -61.52,0 -118.35,8.832 -170.48,26.441 -52.18,17.63 -97.11,44.47 -134.88,80.51 -37.76,36.06 -67.34,80.11 -88.72,132.25 -21.44,52.09 -32.13,111.45 -32.13,178.05 0,66.61 10.69,125.97 32.13,178.08 21.38,52.11 51.36,96.17 89.9,132.23 38.52,36.04 84.64,63.46 138.36,82.26 53.71,18.82 112.87,28.22 177.5,28.22 51.36,0 98.28,-5.29 140.7,-15.87 42.43,-10.57 79.98,-23.33 112.71,-38.19 -6.26,-10.98 -11.31,-25.85 -15.2,-44.65 -3.91,-18.82 -7,-34.5 -9.36,-47.04 l -6.98,-2.33 c -7.79,9.4 -18.69,19.99 -32.7,31.71 -14.04,11.77 -30.37,23.1 -49.04,34.09 -18.69,10.98 -39.7,20.18 -63.07,27.62 -23.34,7.45 -49.04,11.18 -77.06,11.18 -45.94,0 -88.57,-7.44 -127.87,-22.33 -39.31,-14.89 -73.58,-37.82 -102.74,-68.76 -29.21,-30.97 -51.98,-70.15 -68.34,-117.53 -16.34,-47.42 -24.51,-103.64 -24.51,-168.69 0,-65.04 8.17,-121.26 24.51,-168.65 16.36,-47.42 39.13,-86.6 68.34,-117.54 29.16,-30.96 63.43,-53.89 102.74,-68.76 39.3,-14.91 81.93,-22.33 127.87,-22.33 28.02,0 53.89,3.51 77.65,10.58 23.74,7.03 45.53,15.46 65.38,25.26 19.86,9.79 37.78,20.38 53.72,31.76 15.94,11.33 29.38,21.32 40.3,29.95 l 4.68,-4.7 -10.52,-69.36 c -7.01,-6.27 -18.1,-13.13 -33.27,-20.55"></path>
      <path id="path48" style="fill:#1d2953;fill-opacity:1;fill-rule:nonzero;stroke:none" d="m 4136.4,1273.09 c -17.44,-3.16 -35.07,-6.46 -52.88,-10.02 -17.83,-3.51 -35.45,-8.03 -52.88,-13.5 -17.44,-5.5 -32.92,-12.94 -46.47,-22.34 -13.57,-9.39 -24.42,-21.15 -32.54,-35.27 -8.13,-14.1 -12.22,-32.12 -12.22,-54.06 0,-36.83 10.46,-64.63 31.37,-83.45 20.9,-18.8 44.16,-28.2 69.74,-28.2 29.45,0 56.35,8.21 80.78,24.68 24.39,16.47 43.17,35.67 56.34,57.58 l 4.66,176.33 c -13.17,-4.7 -28.46,-8.64 -45.9,-11.75 z m -145.59,275.04 c 29.55,9.39 59.92,14.09 91.08,14.09 28.03,0 53.72,-4.13 77.13,-12.34 23.39,-8.21 43.4,-19.99 59.95,-35.27 16.56,-15.29 29.58,-33.69 39.05,-55.23 9.45,-21.56 14.18,-45.26 14.18,-71.11 0,-44.67 -0.76,-89.14 -2.32,-133.41 -1.58,-44.27 -2.32,-91.09 -2.32,-140.46 0,-9.4 0.17,-19.39 0.56,-29.95 0.4,-10.59 2.15,-19.99 5.28,-28.23 3.09,-8.23 7.59,-15.08 13.41,-20.57 5.84,-5.49 14.6,-8.22 26.29,-8.22 3.86,0 7.95,0.18 12.25,0.58 4.27,0.39 8.35,1.75 12.25,4.13 v -25.88 c -8.56,-3.9 -19.25,-7.041 -32.11,-9.397 -12.84,-2.347 -27.05,-3.511 -42.61,-3.511 -25.29,0 -44.63,6.457 -58.05,19.368 -13.44,12.96 -21.32,29.58 -23.69,49.98 -27.94,-28.24 -55.5,-48.99 -82.64,-62.32 -27.15,-13.306 -60.48,-19.985 -100.06,-19.985 -19.41,0 -38.42,2.765 -57.03,8.253 -18.6,5.497 -35.11,14.472 -49.43,27.022 -14.36,12.51 -26,27.62 -34.94,45.26 -8.92,17.63 -13.37,37.79 -13.37,60.54 0,46.99 14.54,83.45 43.65,109.3 29.08,25.84 69.22,43.09 120.44,51.72 41.89,7.05 74.67,13.11 98.31,18.22 23.65,5.08 41.13,10.37 52.38,15.86 11.24,5.47 18.01,11.94 20.34,19.39 2.35,7.45 3.51,17.04 3.51,28.79 0,19.59 -2.32,38.39 -7,56.44 -4.68,18.01 -12.08,33.67 -22.19,47 -10.13,13.3 -23.34,24.11 -39.71,32.32 -16.35,8.24 -36.21,12.35 -59.53,12.35 -31.16,0 -60.14,-7.06 -87.01,-21.18 -26.85,-14.09 -46.9,-33.68 -60.13,-58.77 h -12.87 v 61.14 c 35.06,26.62 67.34,44.67 96.95,54.08"></path>
      <path id="path50" style="fill:#1d2953;fill-opacity:1;fill-rule:nonzero;stroke:none" d="m 4644.26,1467.02 c -11.32,3.91 -22.79,5.86 -34.47,5.86 -18.67,0 -35.41,-4.3 -50.2,-12.91 -14.81,-8.65 -27.28,-20.2 -37.39,-34.67 -10.09,-14.52 -17.89,-31.74 -23.34,-51.72 -5.45,-19.98 -8.17,-41.33 -8.17,-64.06 v -129.28 c 0,-52.53 0.21,-92.68 0.6,-120.48 0.37,-27.85 1.75,-50.38 4.08,-67.596 -15.59,1.582 -31.14,2.352 -46.71,2.352 -17.15,0 -33.49,-0.77 -49.03,-2.352 2.32,26.616 3.68,62.896 4.08,108.706 0.37,45.86 0.57,102.07 0.57,168.68 v 37.62 c 0,30.57 -0.2,65.81 -0.57,105.78 -0.4,39.95 -1.76,85.8 -4.08,137.52 8.56,-1.58 16.72,-2.94 24.5,-4.11 7.77,-1.18 15.94,-1.77 24.53,-1.77 7.01,0 14.38,0.59 22.18,1.77 7.77,1.17 15.94,2.53 24.53,4.11 -3.12,-28.22 -4.88,-50.53 -5.27,-67 -0.4,-16.45 -0.57,-32.15 -0.57,-47.02 l 2.33,-1.16 c 45.94,84.64 97.29,126.93 154.11,126.93 7.03,0 13.05,-0.4 18.15,-1.19 5.05,-0.78 11.46,-2.74 19.24,-5.85 -3.91,-9.43 -6.24,-23.7 -6.99,-42.9 -0.79,-19.23 -1.19,-36.65 -1.19,-52.31 l -8.16,-5.88 c -3.92,4.7 -11.51,9 -22.76,12.93"></path>
      <path id="path52" style="fill:#1d2953;fill-opacity:1;fill-rule:nonzero;stroke:none" d="m 4882.23,1504.64 c -19.85,-13.35 -36.22,-30 -49.06,-49.96 -12.84,-19.98 -22.58,-41.92 -29.19,-65.82 -6.63,-23.93 -10.71,-46.42 -12.25,-67.59 24.12,-0.79 49.21,-1.59 75.31,-2.35 26.08,-0.79 51.56,-1.16 76.48,-1.16 25.7,0 51.76,0.37 78.25,1.16 26.44,0.76 52.13,1.56 77.05,2.35 0,21.17 -1.75,43.48 -5.24,67 -3.51,23.5 -10.52,45.44 -21.01,65.82 -10.52,20.37 -25.13,37.2 -43.79,50.55 -18.7,13.31 -43.23,19.99 -73.58,19.99 -28.81,0 -53.14,-6.68 -72.97,-19.99 z m -128.44,-24.69 c 45.51,54.82 111.88,82.27 199.07,82.27 41.26,0 76.88,-6.45 106.85,-19.39 29.96,-12.94 55.06,-30.18 75.31,-51.72 20.25,-21.56 35.22,-46.82 44.98,-75.81 9.7,-28.98 14.58,-59.95 14.58,-92.85 0,-7.86 -0.2,-15.5 -0.58,-22.92 -0.41,-7.47 -0.99,-15.11 -1.75,-22.93 -42.03,0.79 -83.7,1.58 -124.96,2.37 -41.26,0.75 -82.9,1.17 -124.93,1.17 -25.69,0 -51.19,-0.42 -76.48,-1.17 -25.31,-0.79 -50.81,-1.58 -76.5,-2.37 -0.77,-3.91 -1.16,-9.8 -1.16,-17.61 v -15.29 c 0,-30.57 4.47,-59.18 13.44,-85.82 8.93,-26.64 21.98,-49.54 39.11,-68.74 17.11,-19.21 38.12,-34.5 63.05,-45.85 24.9,-11.38 53.72,-17.04 86.41,-17.04 15.58,0 31.54,2.15 47.87,6.46 16.35,4.3 32.32,10.18 47.88,17.65 15.57,7.43 30.16,16.25 43.79,26.44 13.62,10.17 25.5,21.15 35.62,32.9 l 5.85,-3.52 -7.01,-57.6 c -23.36,-18.82 -52.38,-34.87 -87.01,-48.2 -34.64,-13.306 -70.65,-19.985 -108,-19.985 -42.04,0 -80.4,6.476 -115.03,19.414 -34.63,12.911 -64.61,31.731 -89.91,56.411 -25.3,24.69 -44.78,53.87 -58.38,87.56 -13.63,33.69 -20.43,70.12 -20.43,109.32 0,96.36 22.77,172 68.32,226.85"></path>
      <path id="path54" style="fill:#1d2953;fill-opacity:1;fill-rule:nonzero;stroke:none" d="m 5364.28,1456.81 -2.95,44.97 c -0.3,5.9 -0.3,13.21 -0.58,21.36 h -0.9 c -2.07,-6.75 -4.42,-15.75 -6.79,-22.76 l -14.5,-42.44 h -16.57 l -14.5,43.57 c -1.47,5.88 -3.83,14.88 -5.61,21.63 h -0.9 c 0,-7.02 -0.28,-14.34 -0.59,-21.36 l -2.94,-44.97 h -15.39 l 5.93,76.44 h 23.93 l 13.93,-37.37 c 1.75,-5.9 3.25,-11.53 5.32,-19.4 h 0.28 c 2.08,7.04 3.86,13.5 5.62,19.12 l 13.92,37.65 h 23.07 l 6.19,-76.44 z m -86.95,76.44 v -12.64 h -25.74 v -63.8 h -15.97 v 63.8 h -25.75 v 12.64 h 67.46"></path>
      <path id="path56" style="fill:#1f2854;fill-opacity:1;fill-rule:nonzero;stroke:none" d="m 2082.78,810.121 h 156.15 v -47.5 h -98.4 v -58.512 h 91.95 V 657 h -91.95 V 554.039 h -57.75 v 256.082"></path>
      <path id="path58" style="fill:#1f2854;fill-opacity:1;fill-rule:nonzero;stroke:none" d="m 2383.35,668.02 c 0,14.058 -6.08,37.609 -32.68,37.609 -24.32,0 -34.19,-22.41 -35.71,-37.609 z m -68.01,-39.52 c 1.52,-23.93 25.45,-35.328 52.43,-35.328 19.76,0 35.71,2.656 51.29,7.976 l 7.6,-39.136 c -19,-7.973 -42.18,-11.774 -67.25,-11.774 -63.07,0 -99.16,36.473 -99.16,94.602 0,47.121 29.25,99.172 93.84,99.172 60.03,0 82.83,-46.742 82.83,-92.711 0,-9.879 -1.14,-18.621 -1.9,-22.801 h -119.68"></path>
      <path id="path60" style="fill:#1f2854;fill-opacity:1;fill-rule:nonzero;stroke:none" d="m 2583.99,668.02 c 0,14.058 -6.08,37.609 -32.68,37.609 -24.32,0 -34.19,-22.41 -35.71,-37.609 z m -68.01,-39.52 c 1.52,-23.93 25.45,-35.328 52.43,-35.328 19.76,0 35.71,2.656 51.29,7.976 l 7.6,-39.136 c -19,-7.973 -42.17,-11.774 -67.25,-11.774 -63.07,0 -99.16,36.473 -99.16,94.602 0,47.121 29.25,99.172 93.84,99.172 60.03,0 82.83,-46.742 82.83,-92.711 0,-9.879 -1.14,-18.621 -1.9,-22.801 h -119.68"></path>
      <path id="path62" style="fill:#1f2854;fill-opacity:1;fill-rule:nonzero;stroke:none" d="m 2672.16,554.039 h 57.7617 V 823.801 H 2672.16 Z"></path>
      <path id="path64" style="fill:#1f2854;fill-opacity:1;fill-rule:nonzero;stroke:none" d="m 2889.9,595.07 c 5.69,-0.761 12.54,-0.761 22.41,-0.761 26.22,0 49.4,10.261 49.4,37.242 0,25.449 -23.18,35.711 -52.06,35.711 h -19.75 z m 0,113.602 h 18.99 c 30.77,0 46.73,12.539 46.73,31.539 0,19.379 -14.81,29.641 -41.02,29.641 -12.92,0 -20.14,-0.774 -24.7,-1.532 z m -57.37,98.027 c 15.19,2.66 45.59,5.321 74.84,5.321 35.34,0 56.99,-3.418 76,-14.442 17.85,-9.5 30.39,-26.976 30.39,-50.527 0,-22.422 -13.3,-43.321 -42.17,-54.332 v -0.758 c 29.25,-7.602 50.91,-30.02 50.91,-62.691 0,-23.559 -10.64,-41.801 -26.6,-54.719 -18.62,-14.821 -49.77,-23.18 -100.69,-23.18 -28.49,0 -49.76,1.899 -62.68,3.801 v 251.527"></path>
      <path id="path66" style="fill:#1f2854;fill-opacity:1;fill-rule:nonzero;stroke:none" d="m 3174.88,668.02 c 0,14.058 -6.08,37.609 -32.68,37.609 -24.31,0 -34.2,-22.41 -35.72,-37.609 z m -68.02,-39.52 c 1.53,-23.93 25.46,-35.328 52.43,-35.328 19.76,0 35.73,2.656 51.3,7.976 l 7.6,-39.136 c -18.99,-7.973 -42.18,-11.774 -67.26,-11.774 -63.06,0 -99.16,36.473 -99.16,94.602 0,47.121 29.26,99.172 93.85,99.172 60.03,0 82.82,-46.742 82.82,-92.711 0,-9.879 -1.13,-18.621 -1.89,-22.801 h -119.69"></path>
      <path id="path68" style="fill:#1f2854;fill-opacity:1;fill-rule:nonzero;stroke:none" d="m 3327.64,789.98 v -50.152 h 41.42 V 697.27 h -41.42 v -67.25 c 0,-22.411 5.71,-32.668 22.81,-32.668 7.97,0 11.77,0.378 17.1,1.519 l 0.37,-43.699 c -7.22,-2.652 -21.27,-4.934 -37.23,-4.934 -18.62,0 -34.2,6.461 -43.7,15.953 -10.64,11.02 -15.96,28.879 -15.96,55.098 v 75.981 h -24.7 v 42.558 h 24.7 v 34.57 l 56.61,15.582"></path>
      <path id="path70" style="fill:#1f2854;fill-opacity:1;fill-rule:nonzero;stroke:none" d="m 3467.1,789.98 v -50.152 h 41.41 V 697.27 h -41.41 v -67.25 c 0,-22.411 5.7,-32.668 22.8,-32.668 7.98,0 11.78,0.378 17.1,1.519 l 0.37,-43.699 c -7.22,-2.652 -21.27,-4.934 -37.23,-4.934 -18.62,0 -34.2,6.461 -43.7,15.953 -10.63,11.02 -15.96,28.879 -15.96,55.098 v 75.981 h -24.69 v 42.558 h 24.69 v 34.57 l 56.62,15.582"></path>
      <path id="path72" style="fill:#1f2854;fill-opacity:1;fill-rule:nonzero;stroke:none" d="m 3652.54,668.02 c 0,14.058 -6.09,37.609 -32.68,37.609 -24.32,0 -34.2,-22.41 -35.72,-37.609 z m -68.02,-39.52 c 1.52,-23.93 25.46,-35.328 52.43,-35.328 19.76,0 35.72,2.656 51.3,7.976 l 7.6,-39.136 c -19,-7.973 -42.18,-11.774 -67.26,-11.774 -63.07,0 -99.16,36.473 -99.16,94.602 0,47.121 29.26,99.172 93.85,99.172 60.03,0 82.82,-46.742 82.82,-92.711 0,-9.879 -1.13,-18.621 -1.89,-22.801 h -119.69"></path>
      <path id="path74" style="fill:#1f2854;fill-opacity:1;fill-rule:nonzero;stroke:none" d="m 3740.71,678.648 c 0,27.364 -0.38,45.223 -1.51,61.18 h 49.38 l 2.29,-34.199 h 1.52 c 9.49,27.359 31.91,38.762 50.15,38.762 5.32,0 7.97,-0.379 12.15,-1.141 v -54.34 c -4.56,0.77 -9.12,1.531 -15.57,1.531 -21.28,0 -35.72,-11.402 -39.51,-29.261 -0.77,-3.801 -1.15,-8.36 -1.15,-12.918 v -94.223 h -57.75 v 124.609"></path>
      <path id="path76" style="fill:#1f2854;fill-opacity:1;fill-rule:nonzero;stroke:none" d="m 3964.9,810.121 h 129.94 l -5.32,-26.98 h -98.02 l -16.72,-86.243 h 90.42 l -5.31,-26.597 h -90.43 L 3947.8,554.039 h -31.53 l 48.63,256.082"></path>
      <path id="path78" style="fill:#1f2854;fill-opacity:1;fill-rule:nonzero;stroke:none" d="m 4218.73,714.371 c -4.18,1.52 -11.02,2.66 -21.65,2.66 -47.88,0 -87.01,-49.39 -87.01,-100.679 0,-20.524 7.21,-40.661 31.53,-40.661 26.22,0 57.37,34.2 66.49,83.207 z m -20.52,-160.332 c 0,11.02 1.9,28.492 4.18,47.492 h -0.76 c -19.76,-38.371 -45.21,-51.672 -71.43,-51.672 -32.67,0 -52.81,25.832 -52.81,60.789 0,64.211 47.11,131.461 127.28,131.461 17.86,0 36.86,-3.039 49.77,-6.839 l -18.99,-96.129 c -6.08,-31.911 -8.36,-64.59 -7.6,-85.102 h -29.64"></path>
      <path id="path80" style="fill:#1f2854;fill-opacity:1;fill-rule:nonzero;stroke:none" d="m 4276.51,585.949 c 8.74,-5.32 24.32,-11.398 39.51,-11.398 21.28,0 34.96,13.679 34.96,30.019 0,14.442 -6.46,23.18 -25.84,33.809 -21.28,11.781 -33.05,28.121 -33.05,47.121 0,31.91 27.73,56.609 66.49,56.609 16.72,0 31.53,-4.558 38.37,-9.121 l -8.74,-23.929 c -6.46,3.793 -18.23,8.351 -31.91,8.351 -19,0 -32.68,-11.781 -32.68,-27.73 0,-13.301 8.74,-21.66 25.46,-30.782 20.52,-11.398 34.2,-27.738 34.2,-48.25 0,-38.757 -31.16,-60.41 -69.91,-60.41 -19.76,0.383 -37.62,6.082 -45.98,12.543 l 9.12,23.168"></path>
      <path id="path82" style="fill:#1f2854;fill-opacity:1;fill-rule:nonzero;stroke:none" d="m 4497.65,782 -8.36,-44.07 h 44.08 l -4.94,-24.7 h -44.07 l -16.72,-89.281 c -2.28,-10.258 -3.8,-19.758 -3.8,-29.258 0,-11.019 5.32,-17.863 17.48,-17.863 5.7,0 10.64,0.383 14.82,1.524 l -1.52,-24.704 c -5.71,-2.277 -15.2,-3.41 -24.32,-3.41 -27.73,0 -38.75,16.723 -38.75,35.711 0,10.641 1.51,20.903 4.18,34.192 l 17.85,93.089 h -26.21 l 4.56,24.7 h 26.21 l 6.46,34.191 33.05,9.879"></path>
      <path id="path84" style="fill:#1f2854;fill-opacity:1;fill-rule:nonzero;stroke:none" d="m 4631.41,717.41 c -30.01,0 -52.43,-29.25 -60.41,-58.129 49.78,-0.761 88.53,6.078 88.53,34.957 0,14.821 -11.4,23.172 -28.12,23.172 z m 34.96,-153.121 c -13.68,-7.59 -36.09,-14.43 -60.79,-14.43 -48.63,0 -69.91,33.43 -69.91,74.09 0,55.473 41.04,118.16 100.3,118.16 34.96,0 53.96,-20.898 53.96,-47.488 0,-48.262 -54.34,-60.793 -122.35,-59.66 -1.52,-7.973 -0.38,-25.07 3.8,-34.949 7.22,-16.723 22.04,-24.692 41.04,-24.692 21.66,0 38,6.45 49.39,12.532 l 4.56,-23.563"></path>
      <path id="path86" style="fill:#1f2854;fill-opacity:1;fill-rule:nonzero;stroke:none" d="m 4706.29,554.039 22.42,118.539 c 4.18,23.942 7.21,48.25 9.11,65.352 h 27.74 c -1.52,-12.918 -3.04,-25.84 -4.94,-39.899 h 1.14 c 11.78,25.078 31.54,44.078 56.23,44.078 3.04,0 6.46,-0.379 9.12,-0.757 l -6.08,-31.161 c -2.27,0.379 -5.32,0.758 -8.74,0.758 -27.35,0 -51.67,-33.051 -59.65,-75.988 l -15.19,-80.922 h -31.16"></path>
      <path id="path88" style="fill:#ffffff;fill-opacity:1;fill-rule:nonzero;stroke:none" d="m 5161.64,750.41 c 0,0.012 0.01,0.02 0.01,0.031 -15.55,0 -31.1,0 -46.63,0.008 -5.05,0 -8.17,2.66 -8.59,7.5 -0.14,1.582 -0.02,3.289 0.33,4.942 6.19,29.73 12.43,59.468 18.64,89.199 0.23,1.101 0.42,2.219 0.44,3.301 0.18,9.347 -4.6,15.031 -14.43,15.07 -18.15,0.07 -36.33,0.027 -54.5,0 -1.75,-0.012 -3.55,-0.172 -5.34,-0.492 -9.28,-1.668 -16.02,-8.129 -17.92,-17.149 -6.38,-30.351 -12.73,-60.691 -19.14,-91.039 -0.33,-1.609 -0.98,-3.293 -1.84,-4.801 -2.24,-3.949 -7.06,-6.519 -11.86,-6.531 -6.78,-0.027 -13.55,-0.027 -20.32,-0.039 -23.29,0 -46.58,0 -69.88,0 -3.69,0 -7.34,-1.039 -10.87,-2.941 -6.08,-3.278 -9.49,-8.297 -10.79,-14.449 -3.94,-18.579 -7.82,-37.149 -11.67,-55.731 -0.35,-1.668 -0.55,-3.367 -0.51,-4.988 0.18,-6.153 2.5,-10.801 8.3,-12.922 2.4,-0.879 5.03,-0.91 7.71,-0.91 29.69,0.011 59.37,0 89.07,-0.008 5.28,0 8.46,-2.742 8.84,-7.781 0.1,-1.282 0,-2.66 -0.27,-3.989 -6.15,-29.492 -12.33,-58.972 -18.49,-88.461 -0.32,-1.55 -0.61,-3.121 -0.7,-4.648 -0.54,-9.352 5.04,-15.152 14.47,-15.152 18.25,0 36.49,-0.02 54.76,0.031 1.98,0 4.07,0.25 6.09,0.73 8.45,1.989 15,7.911 16.87,16.957 5.23,25.18 10.54,50.364 15.81,75.543 1.14,5.368 2.22,10.739 3.43,16.118 1.15,5.031 4.56,8.55 9.66,10 1.4,0.39 2.86,0.632 4.24,0.632 29.77,0.039 59.55,0.028 89.33,0.047 1.38,0 2.8,0.024 4.21,0.262 9.46,1.578 16.79,7.648 18.83,17.441 3.9,18.707 7.83,37.411 11.74,56.11 0.21,1.019 0.33,2.051 0.36,3.051 0.3,8.929 -4.47,15.117 -14.24,15.078 -15.05,-0.059 -30.1,-0.02 -45.15,-0.02"></path>
      <path id="path90" style="fill:#ee2a35;fill-opacity:1;fill-rule:nonzero;stroke:none" d="m 5161.64,750.41 c 15.05,0 30.1,-0.039 45.15,0.02 9.77,0.039 14.54,-6.149 14.24,-15.078 -0.03,-1 -0.15,-2.032 -0.36,-3.051 -3.91,-18.699 -7.84,-37.403 -11.74,-56.11 -2.04,-9.793 -9.37,-15.863 -18.83,-17.441 -1.41,-0.238 -2.83,-0.262 -4.21,-0.262 -29.78,-0.019 -59.56,-0.008 -89.33,-0.047 -1.38,0 -2.84,-0.242 -4.24,-0.632 -5.1,-1.45 -8.51,-4.969 -9.66,-10 -1.21,-5.379 -2.29,-10.75 -3.43,-16.118 -5.27,-25.179 -10.58,-50.363 -15.81,-75.543 -1.87,-9.046 -8.42,-14.968 -16.87,-16.957 -2.02,-0.48 -4.11,-0.73 -6.09,-0.73 -18.27,-0.051 -36.51,-0.031 -54.76,-0.031 -9.43,0 -15.01,5.8 -14.47,15.152 0.09,1.527 0.38,3.098 0.7,4.648 6.16,29.489 12.34,58.969 18.49,88.461 0.27,1.329 0.37,2.707 0.27,3.989 -0.38,5.039 -3.56,7.781 -8.84,7.781 -29.7,0.008 -59.38,0.019 -89.07,0.008 -2.68,0 -5.31,0.031 -7.71,0.91 -5.8,2.121 -8.12,6.769 -8.3,12.922 -0.04,1.621 0.16,3.32 0.51,4.988 3.85,18.582 7.73,37.152 11.67,55.731 1.3,6.152 4.71,11.171 10.79,14.449 3.53,1.902 7.18,2.941 10.87,2.941 23.3,0 46.59,0 69.88,0 6.77,0.012 13.54,0.012 20.32,0.039 4.8,0.012 9.62,2.582 11.86,6.531 0.86,1.508 1.51,3.192 1.84,4.801 6.41,30.348 12.76,60.688 19.14,91.039 1.9,9.02 8.64,15.481 17.92,17.149 1.79,0.32 3.59,0.48 5.34,0.492 18.17,0.027 36.35,0.07 54.5,0 9.83,-0.039 14.61,-5.723 14.43,-15.07 -0.02,-1.082 -0.21,-2.2 -0.44,-3.301 -6.21,-29.731 -12.45,-59.469 -18.64,-89.199 -0.35,-1.653 -0.47,-3.36 -0.33,-4.942 0.42,-4.84 3.54,-7.5 8.59,-7.5 15.53,-0.008 31.08,-0.008 46.63,-0.008 0,-0.011 -0.01,-0.019 -0.01,-0.031"></path>
    </g>
  </g>
</svg>
